<svg width="24" height="25" viewBox="0 0 24 25" fill="none" xmlns="http://www.w3.org/2000/svg">
<g clip-path="url(#clip0_656_2354)">
<path d="M17.3702 12.8901L12.0002 17.2101L6.63018 12.7301C6.45292 12.5832 6.23039 12.5019 6.00018 12.5001C5.85327 12.4998 5.70811 12.532 5.57503 12.5942C5.44194 12.6564 5.3242 12.7472 5.23018 12.8601C5.14598 12.9611 5.08254 13.0778 5.04349 13.2034C5.00445 13.329 4.99057 13.4611 5.00264 13.592C5.01472 13.723 5.05252 13.8503 5.11387 13.9667C5.17522 14.083 5.25892 14.1861 5.36018 14.2701L11.3602 19.2701C11.5391 19.4172 11.7636 19.4976 11.9952 19.4976C12.2268 19.4976 12.4512 19.4172 12.6302 19.2701L18.6302 14.4401C18.7329 14.3575 18.8183 14.2555 18.8815 14.1399C18.9447 14.0243 18.9844 13.8973 18.9983 13.7663C19.0122 13.6352 19.0001 13.5027 18.9627 13.3764C18.9253 13.2501 18.8632 13.1324 18.7802 13.0301C18.6969 12.9281 18.5944 12.8435 18.4784 12.7813C18.3624 12.719 18.2353 12.6803 18.1043 12.6673C17.9733 12.6542 17.841 12.6672 17.715 12.7055C17.589 12.7437 17.4718 12.8064 17.3702 12.8901V12.8901Z" fill="#FF5E5B"/>
<path d="M11.3602 12.2701C11.5391 12.4172 11.7636 12.4976 11.9952 12.4976C12.2268 12.4976 12.4512 12.4172 12.6302 12.2701L18.6302 7.44007C18.7329 7.35755 18.8183 7.25554 18.8815 7.1399C18.9447 7.02426 18.9844 6.89728 18.9983 6.76625C19.0122 6.63522 19.0001 6.50273 18.9627 6.37639C18.9253 6.25005 18.8632 6.13236 18.7802 6.03007C18.6977 5.92734 18.5956 5.84194 18.48 5.77876C18.3644 5.71559 18.2374 5.67589 18.1064 5.66195C17.9753 5.64802 17.8428 5.66011 17.7165 5.69754C17.5902 5.73497 17.4725 5.797 17.3702 5.88007L12.0002 10.2101L6.63018 5.73007C6.45292 5.58317 6.23039 5.50193 6.00018 5.50007C5.85327 5.49983 5.70811 5.53196 5.57503 5.59419C5.44194 5.65641 5.3242 5.74719 5.23018 5.86007C5.14598 5.96112 5.08254 6.07779 5.04349 6.20339C5.00445 6.32899 4.99057 6.46106 5.00264 6.59204C5.01472 6.72302 5.05252 6.85032 5.11387 6.96667C5.17522 7.08302 5.25892 7.18612 5.36018 7.27007L11.3602 12.2701Z" fill="#FF5E5B"/>
</g>
<defs>
<clipPath id="clip0_656_2354">
<rect width="24" height="24" fill="white" transform="translate(24 24.5) rotate(-180)"/>
</clipPath>
</defs>
</svg>
