<svg width="24" height="25" viewBox="0 0 24 25" fill="none" xmlns="http://www.w3.org/2000/svg">
<g clip-path="url(#clip0_656_2464)">
<path d="M6.62982 12.1099L11.9998 7.78993L17.3698 12.2699C17.5471 12.4168 17.7696 12.4981 17.9998 12.4999C18.1467 12.5002 18.2919 12.468 18.425 12.4058C18.5581 12.3436 18.6758 12.2528 18.7698 12.1399C18.854 12.0389 18.9175 11.9222 18.9565 11.7966C18.9956 11.671 19.0094 11.5389 18.9974 11.408C18.9853 11.277 18.9475 11.1497 18.8861 11.0333C18.8248 10.917 18.7411 10.8139 18.6398 10.7299L12.6398 5.72993C12.4609 5.58285 12.2364 5.50244 12.0048 5.50244C11.7732 5.50244 11.5488 5.58285 11.3698 5.72993L5.36982 10.5599C5.26709 10.6425 5.18169 10.7445 5.11852 10.8601C5.05534 10.9757 5.01564 11.1027 5.0017 11.2337C4.98777 11.3648 4.99986 11.4973 5.03729 11.6236C5.07472 11.7499 5.13675 11.8676 5.21982 11.9699C5.30306 12.0719 5.40562 12.1565 5.52161 12.2187C5.6376 12.281 5.76474 12.3197 5.89575 12.3327C6.02675 12.3458 6.15903 12.3328 6.285 12.2945C6.41097 12.2563 6.52815 12.1936 6.62982 12.1099V12.1099Z" fill="#6EEB83"/>
<path d="M12.6398 12.7299C12.4609 12.5828 12.2364 12.5024 12.0048 12.5024C11.7732 12.5024 11.5488 12.5828 11.3698 12.7299L5.36982 17.5599C5.26709 17.6425 5.18169 17.7445 5.11852 17.8601C5.05534 17.9757 5.01564 18.1027 5.0017 18.2337C4.98777 18.3648 4.99986 18.4973 5.03729 18.6236C5.07472 18.7499 5.13675 18.8676 5.21982 18.9699C5.30234 19.0727 5.40435 19.1581 5.51999 19.2212C5.63563 19.2844 5.76261 19.3241 5.89364 19.338C6.02467 19.352 6.15716 19.3399 6.2835 19.3025C6.40984 19.265 6.52753 19.203 6.62982 19.1199L11.9998 14.7899L17.3698 19.2699C17.5471 19.4168 17.7696 19.4981 17.9998 19.4999C18.1467 19.5002 18.2919 19.468 18.425 19.4058C18.5581 19.3436 18.6758 19.2528 18.7698 19.1399C18.854 19.0389 18.9175 18.9222 18.9565 18.7966C18.9956 18.671 19.0094 18.5389 18.9974 18.408C18.9853 18.277 18.9475 18.1497 18.8861 18.0333C18.8248 17.917 18.7411 17.8139 18.6398 17.7299L12.6398 12.7299Z" fill="#6EEB83"/>
</g>
<defs>
<clipPath id="clip0_656_2464">
<rect width="24" height="24" fill="white" transform="translate(0 0.5)"/>
</clipPath>
</defs>
</svg>
