<svg width="51" height="51" viewBox="0 0 51 51" fill="none" xmlns="http://www.w3.org/2000/svg">
<g clip-path="url(#clip0_523_1749)">
<path fill-rule="evenodd" clip-rule="evenodd" d="M7.17909 32.5099L17.5208 22.1373V17.4502H22.1888L23.8992 15.7341L15.6421 7.44971H7.55829V17.9967L0.128906 25.4454L7.17909 32.5099Z" fill="#003197"/>
<path fill-rule="evenodd" clip-rule="evenodd" d="M35.1707 23.8474L43.4266 15.5646V7.45366H32.911L25.4928 0L18.4463 7.06731L28.7893 17.4495H33.464V22.1366L35.1707 23.8474Z" fill="#ABA17D"/>
<path fill-rule="evenodd" clip-rule="evenodd" d="M32.5337 43.8237L22.1883 33.4453H17.5209V28.7544L15.8105 27.0464L7.55469 35.3295V43.4414H18.0585L25.4891 50.8947L32.5337 43.8237Z" fill="#0056FF"/>
<path fill-rule="evenodd" clip-rule="evenodd" d="M35.3427 43.4413H43.4266V32.8915L50.8554 25.4494L43.8077 18.3833L33.4628 28.7568V33.4464H28.7918L27.0869 35.1619L35.3427 43.4413Z" fill="#003197"/>
</g>
<defs>
<clipPath id="clip0_523_1749">
<rect width="51" height="51.0001" fill="white"/>
</clipPath>
</defs>
</svg>
